<?xml version="1.0" encoding="UTF-8" standalone="no"?>
<svg
   xmlns:dc="http://purl.org/dc/elements/1.1/"
   xmlns:cc="http://creativecommons.org/ns#"
   xmlns:rdf="http://www.w3.org/1999/02/22-rdf-syntax-ns#"
   xmlns:svg="http://www.w3.org/2000/svg"
   xmlns="http://www.w3.org/2000/svg"
   xmlns:sodipodi="http://sodipodi.sourceforge.net/DTD/sodipodi-0.dtd"
   xmlns:inkscape="http://www.inkscape.org/namespaces/inkscape"
   width="64"
   height="64"
   viewBox="0 0 16.933333 16.933334"
   version="1.1"
   id="svg8"
   inkscape:version="0.92.4 (5da689c313, 2019-01-14)"
   sodipodi:docname="15-Planing.svg"
   inkscape:export-filename="/home/wanzabuyumna/@WANZ_DESIGN/NICON STUDIO MAGANG/Style Line/Style Line/Icon 8/Icon 8.png"
   inkscape:export-xdpi="96"
   inkscape:export-ydpi="96">
  <defs
     id="defs2" />
  <sodipodi:namedview
     id="base"
     pagecolor="#ffffff"
     bordercolor="#959595"
     borderopacity="1"
     inkscape:pageopacity="0"
     inkscape:pageshadow="2"
     inkscape:zoom="5.6568545"
     inkscape:cx="45.600717"
     inkscape:cy="9.5704475"
     inkscape:document-units="px"
     inkscape:current-layer="layer1"
     inkscape:document-rotation="0"
     showgrid="false"
     units="px"
     inkscape:window-width="1920"
     inkscape:window-height="1040"
     inkscape:window-x="0"
     inkscape:window-y="0"
     inkscape:window-maximized="1"
     inkscape:pagecheckerboard="0" />
  <metadata
     id="metadata5">
    <rdf:RDF>
      <cc:Work
         rdf:about="">
        <dc:format>image/svg+xml</dc:format>
        <dc:type
           rdf:resource="http://purl.org/dc/dcmitype/StillImage" />
      </cc:Work>
    </rdf:RDF>
  </metadata>
  <g
     inkscape:label="15-Planing"
     inkscape:groupmode="layer"
     id="layer1">
    <path
       style="opacity:1;fill:#3588cb;fill-opacity:1;stroke:none;stroke-width:0.52916664;stroke-linecap:round;stroke-miterlimit:4;stroke-dasharray:none"
       d="m 13.229166,10.847917 h 1.058333 v 1.058333 h -1.058333 z"
       id="rect9986"
       inkscape:connector-curvature="0"
       sodipodi:nodetypes="ccccc" />
    <path
       style="opacity:1;fill:#d0e5f8;fill-opacity:1;stroke:none;stroke-width:0.52916664;stroke-linecap:round;stroke-miterlimit:4;stroke-dasharray:none"
       d="M 0,14.022917 H 1.3229166 V 16.66875 H 0 Z"
       id="rect9635"
       inkscape:connector-curvature="0"
       sodipodi:nodetypes="ccccc" />
    <path
       inkscape:connector-curvature="0"
       style="fill:#b0d2f0;fill-opacity:1;stroke:none;stroke-width:0.26458332px;stroke-linecap:butt;stroke-linejoin:miter;stroke-opacity:1"
       d="M 1.0629842,14.022916 C 0.9506751,15.403099 0.45251134,16.059563 0,16.375228 v 0.293522 h 1.3229166 v -2.645834 z"
       id="path9642"
       sodipodi:nodetypes="cccccc" />
    <path
       style="display:inline;opacity:1;fill:#ffd1b5;fill-opacity:1;stroke:none;stroke-width:0.52916664;stroke-linecap:round;stroke-linejoin:round;stroke-miterlimit:4;stroke-dasharray:none;stroke-dashoffset:0;stroke-opacity:1"
       d="m 1.3217538,16.404152 c 0,0 0.5314533,0.264584 0.7959461,0.264584 h 1.5869832 c 0.5861169,0 1.0578166,-0.472023 1.0578166,-1.058334 v -0.264583 h 0.79375 c 0.2931583,0 0.5291666,-0.236008 0.5291666,-0.529167 0,-0.293158 -0.2360083,-0.529166 -0.5291666,-0.529166 -0.8987697,0.01095 -0.967463,0 -1.8515666,0 v -0.975651 c 0,-0.293159 -0.1322739,-0.611849 -0.5286499,-0.611849 -0.5302001,0 -0.7947834,1.252298 -1.0583333,1.322916 l -0.7959461,0.264584 z"
       id="path9623"
       inkscape:connector-curvature="0"
       sodipodi:nodetypes="cccccccccccccc" />
    <path
       inkscape:connector-curvature="0"
       style="fill:#ffb98d;fill-opacity:1;stroke:none;stroke-width:0.26458332px;stroke-linecap:butt;stroke-linejoin:miter;stroke-opacity:1"
       d="m 5.5562499,14.2875 c -0.4249459,0.0052 -0.6528239,0.0053 -0.8805664,0.0041 -0.4917606,1.40805 -2.0484829,1.986504 -3.1083373,2.221052 0.1778834,0.07547 0.3945089,0.156063 0.550354,0.156063 h 1.5869832 c 0.5861169,0 1.0578165,-0.472022 1.0578165,-1.058334 v -0.264583 h 0.79375 c 0.2931584,0 0.5291667,-0.236007 0.5291667,-0.529167 0,-0.293158 -0.2360083,-0.529166 -0.5291667,-0.529166 z"
       id="path9625"
       sodipodi:nodetypes="ccccccccccc" />
    <path
       style="opacity:1;fill:#d0e5f8;fill-opacity:1;stroke:none;stroke-width:0.52916664;stroke-linecap:butt;stroke-linejoin:round;stroke-miterlimit:4;stroke-dasharray:none;stroke-dashoffset:0;stroke-opacity:1"
       d="m 16.139583,14.284863 c 1e-6,1.316576 -1.067295,2.383873 -2.383871,2.383873 -1.316577,0 -2.383873,-1.067296 -2.383872,-2.383873 0,-1.316576 1.067296,-2.383872 2.383872,-2.383872 1.316576,0 2.383871,1.067296 2.383871,2.383872 z"
       id="ellipse9609"
       inkscape:connector-curvature="0"
       sodipodi:nodetypes="ccccc" />
    <path
       transform="matrix(0.1813381,-1.1484135,1.1484135,0.18133808,6.9324263,9.9625122)"
       style="display:inline;opacity:1;fill:#d0e5f8;fill-opacity:1;stroke:none;stroke-width:0.45514113;stroke-linecap:round;stroke-linejoin:round;stroke-miterlimit:4;stroke-dasharray:none;stroke-dashoffset:0;stroke-opacity:1"
       inkscape:transform-center-x="0.0011326947"
       inkscape:transform-center-y="-0.037042274"
       d="M 3.1750001,2.9104167 C 2.8243878,3.4012739 2.8588003,2.9095113 2.3470338,3.2288307 1.8352673,3.5481501 2.2921029,3.733396 1.6970941,3.8325641 1.1020852,3.9317322 1.4741473,3.6083368 0.88648075,3.4722562 0.29881432,3.3361756 0.49085722,3.7901957 2.7041335e-8,3.4395834 -0.49085722,3.088971 9.0544872e-4,3.1233835 -0.318414,2.611617 -0.6377334,2.0998506 -0.82297925,2.5566861 -0.92214736,1.9616773 -1.0213155,1.3666685 -0.69792007,1.7387305 -0.56183945,1.151064 c 0.1360806,-0.58766645 -0.3179395,-0.39562355 0.0326728,-0.88648074 0.35061234,-0.49085725 0.31619985,9.0542e-4 0.82796635,-0.31841403 0.51176643,-0.3193194 0.0549309,-0.50456525 0.64993969,-0.60373336 0.59500891,-0.0991681 0.22294681,0.22422729 0.81061331,0.36030791 0.5876665,0.1360806 0.3956236,-0.3179395 0.8864808,0.0326728 C 3.1366907,0.08602893 2.644928,0.05161644 2.9642475,0.56338294 3.2835669,1.0751494 3.4688127,0.61831385 3.5679809,1.2133226 3.667149,1.8083315 3.3437536,1.4362695 3.2076729,2.023936 3.0715923,2.6116024 3.5256124,2.4195595 3.1750001,2.9104167 Z"
       id="path9584"
       inkscape:connector-curvature="0"
       sodipodi:nodetypes="ccccccccccccccccc" />
    <path
       style="opacity:1;fill:#d0e5f8;fill-opacity:1;stroke:none;stroke-width:0.52916664;stroke-linecap:round;stroke-miterlimit:4;stroke-dasharray:none"
       d="m 16.66875,3.96875 c 0,1.4612533 -1.18458,2.6458331 -2.645833,2.6458333 -1.461253,-2e-7 -2.645833,-1.18458 -2.645833,-2.6458333 0,-1.4612533 1.18458,-2.6458331 2.645833,-2.6458333 1.461253,2e-7 2.645833,1.18458 2.645833,2.6458333 z"
       id="path9571"
       inkscape:connector-curvature="0"
       sodipodi:nodetypes="ccccc" />
    <path
       inkscape:connector-curvature="0"
       style="opacity:1;fill:#b0d2f0;fill-opacity:1;stroke:none;stroke-width:0.52916664;stroke-linecap:round;stroke-miterlimit:4;stroke-dasharray:none"
       d="m 14.022916,1.3229166 c -1.461253,2e-7 -2.645833,1.1845801 -2.645833,2.6458334 0.0013,0.8316129 0.393436,1.6142442 1.05885,2.1130492 -0.34293,-0.4569288 -0.528752,-1.012582 -0.529683,-1.5838826 0,-1.4612533 1.18458,-2.6458331 2.645833,-2.6458333 0.572715,0.00115 1.129594,0.188111 1.586983,0.532784 -0.498811,-0.6674542 -1.2829,-1.0609346 -2.11615,-1.0619507 z"
       id="circle9581"
       sodipodi:nodetypes="ccccccc" />
    <path
       style="display:inline;opacity:1;fill:#ffca28;fill-opacity:1;stroke:none;stroke-width:0.529167;stroke-linecap:butt;stroke-linejoin:round;stroke-miterlimit:4;stroke-dasharray:none;paint-order:stroke fill markers"
       d="m 2.5755013,10.054151 h 1.9224114 c 0.2931586,0 0.5291672,0.236009 0.5291672,0.529167 v 0 0.529166 c 0,0.293159 -0.2360086,0.529167 -0.5291672,0.529167 H 2.3812471 c -0.2931586,0 -0.5291672,-0.236008 -0.5291672,-0.529167 v -0.793673 l -0.00458,-0.26466 z"
       id="path9558"
       inkscape:connector-curvature="0"
       sodipodi:nodetypes="ccccccccccc" />
    <path
       inkscape:connector-curvature="0"
       style="fill:#ecb200;fill-opacity:1;stroke:none;stroke-width:0.26458332px;stroke-linecap:butt;stroke-linejoin:miter;stroke-opacity:1"
       d="m 4.5868002,10.062952 c -0.1916451,1.066837 -1.7381492,1.295747 -2.6494508,1.336869 0.094121,0.14536 0.2571124,0.241846 0.4439006,0.241846 h 2.1166666 c 0.2931586,0 0.5291667,-0.236008 0.5291667,-0.529167 v -0.529167 c 0,-0.262717 -0.1899299,-0.478186 -0.4402831,-0.520381 z"
       id="path9560"
       sodipodi:nodetypes="ccccccc" />
    <path
       sodipodi:nodetypes="cccccccc"
       id="path9525"
       d="M 1.3848107,5.3747956 C 2.1166652,6.612889 2.3812494,7.6729165 2.3812494,8.466658 l 1.2e-6,1.587492 h 2.1166639 l 1.2e-6,-1.587492 c 0,-0.7937415 0.2645842,-1.853769 0.9964387,-3.0918624 H 3.4395825 Z"
       style="display:inline;opacity:1;fill:#ffca28;fill-opacity:1;stroke:none;stroke-width:0.52916598;stroke-linecap:butt;stroke-linejoin:round;stroke-opacity:1;paint-order:stroke fill markers"
       inkscape:connector-curvature="0" />
    <path
       style="opacity:1;fill:#ecb200;fill-opacity:1;stroke:none;stroke-width:0.52916664;stroke-linecap:square;stroke-linejoin:round;stroke-miterlimit:4;stroke-dasharray:none;stroke-dashoffset:0;stroke-opacity:1"
       d="m 1.8521119,7.672858 c 0,0.293137 0.235991,0.529127 0.529128,0.529127 h 0.264632 c 0.293137,0 0.529128,-0.23599 0.529128,-0.529127 0,-0.293137 -0.235991,-0.529128 -0.529128,-0.529128 h -0.264632 c -0.293137,0 -0.529128,0.235991 -0.529128,0.529128 z"
       id="path9565"
       inkscape:connector-curvature="0"
       sodipodi:nodetypes="ccccccc" />
    <path
       sodipodi:nodetypes="ccccccc"
       inkscape:connector-curvature="0"
       id="path9532"
       d="m 1.3229548,7.672858 c 0,0.293137 0.235991,0.529127 0.529128,0.529127 h 0.264632 c 0.293137,0 0.529128,-0.23599 0.529128,-0.529127 0,-0.293137 -0.235991,-0.529128 -0.529128,-0.529128 h -0.264632 c -0.293137,0 -0.529128,0.235991 -0.529128,0.529128 z"
       style="opacity:1;fill:#ffd1b5;fill-opacity:1;stroke:none;stroke-width:0.52916664;stroke-linecap:square;stroke-linejoin:round;stroke-miterlimit:4;stroke-dasharray:none;stroke-dashoffset:0;stroke-opacity:1" />
    <path
       style="opacity:1;fill:#ecb200;fill-opacity:1;stroke:none;stroke-width:0.52916664;stroke-linecap:square;stroke-linejoin:round;stroke-miterlimit:4;stroke-dasharray:none;stroke-dashoffset:0;stroke-opacity:1"
       d="m 1.5875249,8.731232 c 0,0.293158 0.236009,0.529167 0.529167,0.529167 h 0.529137 c 0.293158,0 0.529167,-0.236009 0.529167,-0.529167 0,-0.293159 -0.236009,-0.529167 -0.529167,-0.529167 h -0.529137 c -0.293158,0 -0.529167,0.236008 -0.529167,0.529167 z"
       id="path9567"
       inkscape:connector-curvature="0"
       sodipodi:nodetypes="ccccccc" />
    <path
       inkscape:connector-curvature="0"
       style="fill:#ecb200;fill-opacity:1;stroke:none;stroke-width:0.26458332px;stroke-linecap:butt;stroke-linejoin:miter;stroke-opacity:1"
       d="M 4.240568,5.3748656 C 4.234658,5.5111689 4.231018,5.6562296 4.233338,5.8208333 4.2794991,9.0977311 2.9572862,9.6736444 2.38125,9.7704628 V 10.054167 H 4.4979166 V 8.4666666 c 0,-0.7937416 0.2644672,-1.8537076 0.9963216,-3.091801 z"
       id="path9527"
       sodipodi:nodetypes="cccccccc" />
    <path
       style="opacity:1;fill:#ecb200;fill-opacity:1;stroke:none;stroke-width:0.52916664;stroke-linecap:square;stroke-linejoin:round;stroke-miterlimit:4;stroke-dasharray:none;stroke-dashoffset:0;stroke-opacity:1"
       d="m 1.5875249,9.789605 c 0,0.29318 0.236026,0.529206 0.529206,0.529206 h 0.529056 c 0.29318,0 0.529206,-0.236026 0.529206,-0.529206 0,-0.29318 -0.236026,-0.529206 -0.529206,-0.529206 h -0.529056 c -0.29318,0 -0.529206,0.236026 -0.529206,0.529206 z"
       id="path9569"
       inkscape:connector-curvature="0"
       sodipodi:nodetypes="ccccccc" />
    <path
       style="display:inline;opacity:1;fill:#ffca28;fill-opacity:1;stroke:none;stroke-width:0.52916664;stroke-linecap:butt;stroke-linejoin:round;stroke-miterlimit:4;stroke-dasharray:none;stroke-dashoffset:0;stroke-opacity:1"
       d="M 0.79374966,0.26456934 H 6.0854164 c 0.2931583,0 0.5291666,0.2360083 0.5291666,0.52916658 0,0.29315828 -0.2360083,0.52916658 -0.5291666,0.52916658 H 0.79374966 c -0.29315828,0 -0.52916658,-0.2360083 -0.52916658,-0.52916658 0,-0.29315828 0.2360083,-0.52916658 0.52916658,-0.52916658 z"
       id="rect9499"
       inkscape:connector-curvature="0"
       sodipodi:nodetypes="ccccccc" />
    <path
       sodipodi:nodetypes="cccccc"
       inkscape:connector-curvature="0"
       id="path9485"
       d="m 6.0854146,1.3229227 v 2.381226 c 0,1.4657919 -1.1800422,2.645833 -2.645833,2.645833 -1.465792,0 -2.64583316,-1.1800411 -2.64583316,-2.645833 v -2.381226 z"
       style="display:inline;opacity:1;fill:#ffca28;fill-opacity:1;stroke:none;stroke-width:0.52916664;stroke-linecap:butt;stroke-linejoin:round;stroke-miterlimit:4;stroke-dasharray:none;stroke-dashoffset:0;stroke-opacity:1" />
    <path
       inkscape:connector-curvature="0"
       style="display:inline;opacity:1;fill:#ecb200;fill-opacity:1;stroke:none;stroke-width:0.52916664;stroke-linecap:butt;stroke-linejoin:round;stroke-miterlimit:4;stroke-dasharray:none;stroke-dashoffset:0;stroke-opacity:1"
       d="M 0.79374999,1.3229166 V 1.8520833 H 6.0854166 V 1.3229166 Z"
       id="rect9506"
       sodipodi:nodetypes="ccccc" />
    <path
       inkscape:connector-curvature="0"
       style="display:inline;opacity:1;fill:#f5f9fb;fill-opacity:1;stroke:none;stroke-width:0.52916664;stroke-linecap:butt;stroke-linejoin:round;stroke-miterlimit:4;stroke-dasharray:none;stroke-dashoffset:0;stroke-opacity:1"
       d="m 0.79374999,1.3229166 v 2.38125 c 0,1.4657919 1.18004131,2.6458333 2.64583331,2.6458333 0.08934,0 0.1775685,-0.00436 0.2645833,-0.01292 C 2.3635449,6.2051204 1.3229166,5.080618 1.3229166,3.7041666 v -2.38125 z"
       id="path9513"
       sodipodi:nodetypes="ccccccc" />
    <path
       inkscape:connector-curvature="0"
       style="display:inline;opacity:1;fill:#ecb200;fill-opacity:1;stroke:none;stroke-width:0.52916664;stroke-linecap:butt;stroke-linejoin:round;stroke-miterlimit:4;stroke-dasharray:none;stroke-dashoffset:0;stroke-opacity:1"
       d="M 5.0270833,1.3229166 V 3.175 c 0,1.4657919 -1.1800425,2.6458333 -2.6458333,2.6458333 -0.2184156,0 -0.4292353,-0.029105 -0.6320028,-0.078548 0.4578558,0.3797847 1.0462802,0.6077148 1.6903361,0.6077148 1.4657908,0 2.6458333,-1.1800414 2.6458333,-2.6458333 v -2.38125 z"
       id="path9489"
       sodipodi:nodetypes="cccccccc" />
    <path
       transform="matrix(0,1,1,0,0,0)"
       style="opacity:1;fill:#ffd1b5;fill-opacity:1;stroke:none;stroke-width:0.52916664;stroke-linecap:square;stroke-linejoin:round;stroke-miterlimit:4;stroke-dasharray:none;stroke-dashoffset:0;stroke-opacity:1"
       d="m 7.8052012,3.7041674 c 0.3664529,0 0.6614673,0.2950144 0.6614673,0.6614672 v 0.5291487 c 0,0.3664529 -0.2950144,0.6614673 -0.6614673,0.6614673 -0.3664528,0 -0.6614672,-0.2950144 -0.6614672,-0.6614673 V 4.3656346 c 0,-0.3664528 0.2950144,-0.6614672 0.6614672,-0.6614672 z"
       id="rect9534"
       inkscape:connector-curvature="0"
       sodipodi:nodetypes="ccccccc" />
    <path
       inkscape:connector-curvature="0"
       style="fill:#ffb98d;fill-opacity:1;stroke:none;stroke-width:0.26458332px;stroke-linecap:butt;stroke-linejoin:miter;stroke-opacity:1"
       d="M 5.4100057,7.3943807 C 5.0374541,7.9621077 4.2741495,8.0887124 3.7806476,8.1090658 3.8906285,8.3210007 4.1094707,8.4666666 4.3656249,8.4666666 h 0.5291667 c 0.3664529,0 0.6614583,-0.2950054 0.6614583,-0.6614584 0,-0.1563978 -0.056152,-0.2978351 -0.1462442,-0.4108275 z"
       id="path9540"
       sodipodi:nodetypes="cccccc" />
    <path
       inkscape:connector-curvature="0"
       style="fill:#ffb98d;fill-opacity:1;stroke:none;stroke-width:0.26458332px;stroke-linecap:butt;stroke-linejoin:miter;stroke-opacity:1"
       d="M 2.501656,7.3111814 C 2.2425793,7.6404924 1.774273,7.7924574 1.3596069,7.864636 1.4362499,8.0621313 1.6268657,8.2020832 1.8520833,8.2020832 h 0.2645833 c 0.293137,0 0.5291667,-0.2360297 0.5291667,-0.5291666 0,-0.1406081 -0.055321,-0.2671609 -0.1441773,-0.3617352 z"
       id="path9552"
       sodipodi:nodetypes="cccccc" />
    <path
       sodipodi:nodetypes="ccccccc"
       inkscape:connector-curvature="0"
       id="path9536"
       d="m 1.0583678,8.731232 c 0,0.293158 0.236009,0.529167 0.529167,0.529167 h 0.529137 c 0.293158,0 0.529167,-0.236009 0.529167,-0.529167 0,-0.293159 -0.236009,-0.529167 -0.529167,-0.529167 h -0.529137 c -0.293158,0 -0.529167,0.236008 -0.529167,0.529167 z"
       style="opacity:1;fill:#ffd1b5;fill-opacity:1;stroke:none;stroke-width:0.52916664;stroke-linecap:square;stroke-linejoin:round;stroke-miterlimit:4;stroke-dasharray:none;stroke-dashoffset:0;stroke-opacity:1" />
    <path
       sodipodi:nodetypes="ccccccc"
       inkscape:connector-curvature="0"
       id="path9538"
       d="m 1.0583678,9.789605 c 0,0.29318 0.236026,0.529206 0.529206,0.529206 h 0.529056 c 0.29318,0 0.529206,-0.236026 0.529206,-0.529206 0,-0.29318 -0.236026,-0.529206 -0.529206,-0.529206 h -0.529056 c -0.29318,0 -0.529206,0.236026 -0.529206,0.529206 z"
       style="opacity:1;fill:#ffd1b5;fill-opacity:1;stroke:none;stroke-width:0.52916664;stroke-linecap:square;stroke-linejoin:round;stroke-miterlimit:4;stroke-dasharray:none;stroke-dashoffset:0;stroke-opacity:1" />
    <path
       id="path9550"
       d="M 2.4768514,8.34471 C 2.1727415,8.7607969 1.5790405,8.9102153 1.1131103,8.9622435 1.1988427,9.1383848 1.3777307,9.2604165 1.5875,9.2604165 h 0.5291666 c 0.29318,0 0.5291667,-0.2359866 0.5291667,-0.5291667 0,-0.1533377 -0.065445,-0.2900614 -0.1689819,-0.3865398 z"
       style="fill:#ffb98d;fill-opacity:1;stroke:none;stroke-width:0.26458332px;stroke-linecap:butt;stroke-linejoin:miter;stroke-opacity:1"
       inkscape:connector-curvature="0"
       sodipodi:nodetypes="cccccc" />
    <path
       inkscape:connector-curvature="0"
       style="fill:#ffb98d;fill-opacity:1;stroke:none;stroke-width:0.26458332px;stroke-linecap:butt;stroke-linejoin:miter;stroke-opacity:1"
       d="M 2.4768514,9.4030434 C 2.1727415,9.8191303 1.5790405,9.9685487 1.1131103,10.020577 1.1988427,10.196718 1.3777307,10.31875 1.5875,10.31875 h 0.5291666 c 0.29318,0 0.5291667,-0.235987 0.5291667,-0.5291668 0,-0.1533377 -0.065445,-0.2900614 -0.1689819,-0.3865398 z"
       id="path9545"
       sodipodi:nodetypes="cccccc" />
    <path
       inkscape:connector-curvature="0"
       style="fill:#ecb200;fill-opacity:1;stroke:none;stroke-width:0.26458332px;stroke-linecap:butt;stroke-linejoin:miter;stroke-opacity:1"
       d="M 6.3613688,0.34364826 C 5.4115834,0.94466642 2.0571071,0.96709268 0.28577066,0.93430988 0.34736508,1.1583217 0.54964366,1.3229166 0.79374999,1.3229166 H 6.0854166 c 0.2931583,0 0.5291666,-0.2360083 0.5291666,-0.52916661 0,-0.19143133 -0.101746,-0.35720983 -0.2532144,-0.45010173 z"
       id="path9501"
       sodipodi:nodetypes="cccccc" />
    <path
       inkscape:connector-curvature="0"
       style="display:inline;opacity:1;fill:#f5f9fb;fill-opacity:1;stroke:none;stroke-width:0.52916664;stroke-linecap:butt;stroke-linejoin:round;stroke-miterlimit:4;stroke-dasharray:none;stroke-dashoffset:0;stroke-opacity:1"
       d="m 0.79374999,0.26458333 c -0.29315828,0 -0.52916666,0.23600838 -0.52916666,0.52916666 0,0.29315831 0.23600838,0.52916661 0.52916666,0.52916661 H 1.3229166 c -0.2931582,0 -0.52916661,-0.2360083 -0.52916661,-0.52916661 0,-0.29315828 0.23600841,-0.52916666 0.52916661,-0.52916666 z"
       id="rect9518"
       sodipodi:nodetypes="ccccccc" />
    <path
       inkscape:connector-curvature="0"
       id="path9492"
       d="M 4.2506615,5.0213686 3.4393517,4.5682488 2.6151316,5.0270886 l 0.15971,-0.95036 -0.65866,-0.68136 0.9131199,-0.1342398 0.4100502,-0.8799301 0.4026997,0.8674 0.9204701,0.1375201 -0.6726399,0.67033 z"
       inkscape:transform-center-y="-0.00139511"
       inkscape:transform-center-x="-0.13788942"
       style="display:inline;opacity:1;fill:#d0e5f8;fill-opacity:1;stroke:none;stroke-width:0.529167;stroke-linecap:round;stroke-linejoin:round;stroke-miterlimit:4;stroke-dasharray:none;paint-order:stroke fill markers"
       sodipodi:nodetypes="ccccccccccc" />
    <path
       inkscape:connector-curvature="0"
       style="display:inline;opacity:1;fill:#b0d2f0;fill-opacity:1;stroke:none;stroke-width:0.52916664;stroke-linecap:butt;stroke-linejoin:round;stroke-miterlimit:4;stroke-dasharray:none;stroke-dashoffset:0;stroke-opacity:1"
       d="M 4.1935423,3.3010903 C 3.8746318,3.8870112 3.3403399,4.3367713 2.6959594,4.547526 L 2.6153442,5.0270833 3.4395833,4.5681966 4.0969075,4.935616 C 4.1403945,4.914214 4.1834965,4.892632 4.2255818,4.868954 L 4.0896727,4.0565998 4.7624999,3.3863565 Z"
       id="path9494"
       sodipodi:nodetypes="ccccccccc" />
    <path
       style="fill:#549ad4;fill-opacity:1;stroke:none;stroke-width:0.529167;stroke-linecap:round;stroke-linejoin:round;stroke-miterlimit:4;stroke-dasharray:none;stroke-opacity:1;paint-order:normal"
       d="m 9.7885312,8.7312889 c 0,0.4383454 -0.3554388,0.7936946 -0.7938947,0.7936946 -0.4384559,0 -0.7938946,-0.3553492 -0.7938946,-0.7936946 0,-0.4383454 0.3554387,-0.7936945 0.7938946,-0.7936945 0.4384559,0 0.7938947,0.3553491 0.7938947,0.7936945 z"
       id="ellipse9602"
       inkscape:connector-curvature="0"
       sodipodi:nodetypes="ccccc" />
    <path
       inkscape:connector-curvature="0"
       style="fill:#3588cb;fill-opacity:1;stroke:none;stroke-width:0.529167;stroke-linecap:round;stroke-linejoin:round;stroke-miterlimit:4;stroke-dasharray:none;stroke-opacity:1;paint-order:normal"
       d="M 8.9947998,7.9374999 C 8.5561769,7.9372943 8.2005023,8.2927375 8.200533,8.7312499 8.2007523,9.080803 8.4296901,9.3890613 8.7643228,9.4903768 8.741551,9.4158386 8.7298848,9.3383537 8.7296998,9.2604166 c -3.07e-5,-0.4385123 0.3556438,-0.7939555 0.7942667,-0.79375 0.077938,1.935e-4 0.1554221,0.01186 0.22996,0.034623 C 9.6526573,8.1667528 9.3444091,7.9378224 8.9947998,7.9374999 Z"
       id="ellipse9606"
       sodipodi:nodetypes="ccccccc" />
    <path
       inkscape:connector-curvature="0"
       style="display:inline;opacity:1;fill:#b0d2f0;fill-opacity:1;stroke:none;stroke-width:0.52916634;stroke-linecap:round;stroke-linejoin:round;stroke-miterlimit:4;stroke-dasharray:none;stroke-dashoffset:0;stroke-opacity:1"
       d="m 8.9725787,6.0848999 c -0.1182867,0.00101 -0.1941777,0.012946 -0.2557983,0.028939 0.2788972,0.078679 0.062587,0.3174433 0.5927288,0.5317505 0.3302815,0.1335146 0.4569899,0.056357 0.5674071,0.011885 -0.014195,-0.00522 -0.023738,-0.00581 -0.038757,-0.011885 C 9.1879514,6.3827461 9.673878,6.0789115 8.9725787,6.0848999 Z"
       id="path9600"
       sodipodi:nodetypes="cccccc" />
    <path
       inkscape:connector-curvature="0"
       style="display:inline;opacity:1;fill:#b0d2f0;fill-opacity:1;stroke:none;stroke-width:0.52916634;stroke-linecap:round;stroke-linejoin:round;stroke-miterlimit:4;stroke-dasharray:none;stroke-dashoffset:0;stroke-opacity:1"
       d="m 10.482048,6.6347371 c -0.08787,0.012552 -0.163012,0.0764 -0.306959,0.082166 0.04259,0.031595 0.08913,0.070977 0.146245,0.127124 0.500127,0.4916591 -0.05842,0.3630996 0.21549,1.008724 0.273908,0.6456241 0.569688,0.1544624 0.575676,0.8557614 0.006,0.7012993 -0.297846,0.2153727 -0.56069,0.8655804 -0.262842,0.6502071 0.293222,0.5122131 -0.198437,1.0123411 -0.0604,0.06144 -0.111284,0.106017 -0.155546,0.139009 0.290687,5.29e-4 0.301132,0.251179 0.684713,-0.139009 C 11.374199,10.086306 10.81813,10.2243 11.080977,9.5740929 11.34382,8.9238852 11.647655,9.4098118 11.641667,8.7085125 11.635667,8.0072135 11.339899,8.4983752 11.065991,7.8527511 10.792083,7.2071263 11.350628,7.3356858 10.8505,6.8440267 10.662952,6.6596545 10.565301,6.6228438 10.482048,6.6347371 Z"
       id="path9598"
       sodipodi:nodetypes="cccccccccccccc" />
    <path
       style="display:inline;opacity:1;fill:#f5f9fb;fill-opacity:1;stroke:none;stroke-width:0.52916664;stroke-linecap:round;stroke-linejoin:round;stroke-miterlimit:4;stroke-dasharray:none;stroke-dashoffset:0;stroke-opacity:1"
       d="m 1.8510498,14.2875 0.795817,-0.264584 C 2.868809,13.963447 3.0922687,13.068715 3.4736897,12.786816 3.3970801,12.734209 3.3010535,12.7 3.1760334,12.7 2.6458333,12.7 2.3812501,13.952298 2.1177002,14.022916 L 1.3218831,14.2875 Z m 3.7052001,0 c -0.3209538,0.0039 -0.4808958,0.0033 -0.6650757,0.0031 0.1896388,0.0013 0.4764437,-5.03e-4 0.6872965,-10e-4 -0.00753,-3.17e-4 -0.014615,-0.0021 -0.022221,-0.0021 z"
       id="path9632"
       inkscape:connector-curvature="0"
       sodipodi:nodetypes="ccccccccccc" />
    <path
       inkscape:connector-curvature="0"
       style="opacity:1;fill:#ffb98d;fill-opacity:1;stroke:none;stroke-width:0.52916664;stroke-linecap:round;stroke-miterlimit:4;stroke-dasharray:none"
       d="M 1.8520833,14.111283 1.3218831,14.2875 v 2.116666 c 0,0 0.276689,0.136207 0.5302002,0.212907 z"
       id="rect9637"
       sodipodi:nodetypes="ccccc" />
    <path
       inkscape:connector-curvature="0"
       style="opacity:1;fill:#b0d2f0;fill-opacity:1;stroke:none;stroke-width:0.52916664;stroke-linecap:butt;stroke-linejoin:round;stroke-miterlimit:4;stroke-dasharray:none;stroke-dashoffset:0;stroke-opacity:1"
       d="m 13.755749,11.901082 c -1.316546,2.1e-5 -2.383812,1.067288 -2.383833,2.383834 9.01e-4,0.763769 0.367709,1.480861 0.986503,1.928564 -0.296275,-0.406529 -0.456357,-0.896362 -0.457337,-1.399397 2.1e-5,-1.316547 1.067288,-2.383813 2.383834,-2.383834 0.502099,8.14e-4 0.991122,0.160144 1.397331,0.455269 -0.447719,-0.617424 -1.16383,-0.983355 -1.926498,-0.984436 z"
       id="ellipse9613"
       sodipodi:nodetypes="ccccccc" />
    <path
       style="opacity:1;fill:#ffca28;fill-opacity:1;stroke:none;stroke-width:0.52916664;stroke-linecap:butt;stroke-linejoin:round;stroke-miterlimit:4;stroke-dasharray:none;stroke-dashoffset:0;stroke-opacity:1"
       d="m 15.081456,14.284856 c 0,0.53621 -0.323005,1.019622 -0.818399,1.224821 -0.495394,0.205199 -1.065617,0.09177 -1.444775,-0.287384 -0.379158,-0.379158 -0.492583,-0.949381 -0.287384,-1.444775 0.205199,-0.495394 0.688611,-0.818399 1.224821,-0.818399 v 1.325737 z"
       id="path9616"
       inkscape:connector-curvature="0"
       sodipodi:nodetypes="ccccccc" />
    <path
       inkscape:connector-curvature="0"
       style="opacity:1;fill:#f5f9fb;fill-opacity:1;stroke:none;stroke-width:0.52916664;stroke-linecap:butt;stroke-linejoin:round;stroke-miterlimit:4;stroke-dasharray:none;stroke-dashoffset:0;stroke-opacity:1"
       d="m 13.755749,12.958899 c -0.536216,6.2e-5 -1.019593,0.32313 -1.224731,0.818555 -0.205258,0.495409 -0.09186,1.065682 0.287321,1.444872 0.314682,0.314451 0.766101,0.450109 1.201994,0.361219 -0.25485,-0.05181 -0.488835,-0.177426 -0.672827,-0.361219 -0.379177,-0.37919 -0.492579,-0.949463 -0.287321,-1.444872 0.131774,-0.316564 0.381078,-0.569757 0.695564,-0.706417 z"
       id="path9620"
       sodipodi:nodetypes="cccccccc" />
    <path
       inkscape:connector-curvature="0"
       style="display:inline;opacity:1;fill:#b0d2f0;fill-opacity:1;stroke:none;stroke-width:0.52916634;stroke-linecap:round;stroke-linejoin:round;stroke-miterlimit:4;stroke-dasharray:none;stroke-dashoffset:0;stroke-opacity:1"
       d="m 9.7058675,10.72286 c -0.086408,-0.006 -0.1998123,0.01059 -0.3612185,0.07906 -0.5363363,0.227542 -0.2962407,0.467209 -0.5989296,0.546219 0.063139,0.01775 0.1431134,0.03004 0.2723346,0.02894 0.7012993,-0.006 0.2101376,-0.30125 0.8557617,-0.575158 0.020791,-0.0088 0.034512,-0.01041 0.053743,-0.01757 -0.060959,-0.0216 -0.1243746,-0.05471 -0.2216917,-0.0615 z"
       id="path9593"
       sodipodi:nodetypes="cccccccc" />
    <path
       transform="scale(-1,1)"
       style="display:inline;opacity:1;fill:#549ad4;fill-opacity:1;stroke:none;stroke-width:0.529167;stroke-linecap:round;stroke-linejoin:round;stroke-miterlimit:4;stroke-dasharray:none;paint-order:stroke fill markers"
       d="m -13.49304,3.7041523 h 1.058336 l 10e-7,10e-8 v 1.0583354 l -10e-7,1e-7 h -1.058336 v -1e-7 -1.0583354 z"
       id="rect9573"
       inkscape:connector-curvature="0"
       sodipodi:nodetypes="ccccccccc" />
    <path
       inkscape:connector-curvature="0"
       style="fill:#3588cb;fill-opacity:1;stroke:none;stroke-width:0.26458332px;stroke-linecap:butt;stroke-linejoin:miter;stroke-opacity:1"
       d="M 13.493233,4.128947 C 13.137417,4.3068549 12.77411,4.4355165 12.4349,4.5273721 v 0.2351278 h 1.058333 z"
       id="path9647"
       sodipodi:nodetypes="ccccc" />
    <path
       transform="scale(-1,1)"
       style="display:inline;opacity:1;fill:#ffca28;fill-opacity:1;stroke:none;stroke-width:0.529167;stroke-linecap:round;stroke-linejoin:round;stroke-miterlimit:4;stroke-dasharray:none;paint-order:stroke fill markers"
       d="m -14.551382,2.645818 h 1.058337 v 2e-7 2.1166675 3e-7 h -1.058337 v -3e-7 -2.1166675 z"
       id="rect9575"
       inkscape:connector-curvature="0"
       sodipodi:nodetypes="ccccccccc" />
    <path
       inkscape:connector-curvature="0"
       style="display:inline;opacity:1;fill:#ecb200;fill-opacity:1;stroke:none;stroke-width:0.529167;stroke-linecap:round;stroke-linejoin:round;stroke-miterlimit:4;stroke-dasharray:none;paint-order:stroke fill markers"
       d="M 14.551566,3.3848063 C 14.23198,3.6989144 13.867316,3.9419056 13.493233,4.128947 v 0.6335529 h 1.058333 z"
       id="rect9653"
       sodipodi:nodetypes="ccccc" />
    <path
       transform="scale(-1,1)"
       style="display:inline;opacity:1;fill:#549ad4;fill-opacity:1;stroke:none;stroke-width:0.529167;stroke-linecap:round;stroke-linejoin:round;stroke-miterlimit:4;stroke-dasharray:none;paint-order:stroke fill markers"
       d="m -15.609715,1.0583193 h 1.057631 v 3.7041641 h -1.057631 z"
       id="rect9577"
       inkscape:connector-curvature="0"
       sodipodi:nodetypes="ccccc" />
    <path
       inkscape:connector-curvature="0"
       style="display:inline;opacity:1;fill:#3588cb;fill-opacity:1;stroke:none;stroke-width:0.529167;stroke-linecap:round;stroke-linejoin:round;stroke-miterlimit:4;stroke-dasharray:none;paint-order:stroke fill markers"
       d="m 15.603182,1.0583333 c -0.09019,1.0411939 -0.503829,1.7878504 -1.051099,2.3259563 V 4.7624999 H 15.6099 V 1.0583333 Z"
       id="rect9649"
       sodipodi:nodetypes="cccccc" />
    <path
       style="opacity:1;fill:#000000;fill-opacity:1;stroke:none;stroke-width:0.5291667;stroke-linecap:round;stroke-linejoin:round;stroke-miterlimit:4;stroke-dasharray:none;stroke-dashoffset:0;stroke-opacity:1"
       d="M 0.79477367,-8.1492724e-7 C 0.35959766,-8.1492724e-7 9.417062e-7,0.35756849 9.417062e-7,0.79271569 9.417062e-7,1.1349408 0.22243707,1.4308706 0.52916042,1.5415072 v 2.1636922 c 0,0.6818389 0.2343749,1.3086077 0.62682658,1.8045411 0.2368534,0.4024654 0.4784645,0.8758439 0.6604159,1.3699422 -0.4190052,0.018857 -0.7575662,0.370991 -0.7575662,0.7942664 0,0.1410312 0.037203,0.2738867 0.1028347,0.3891238 -0.2199618,0.1415439 -0.36689763,0.3878596 -0.36689773,0.6666262 0,0.2024406 0.0774707,0.3890285 0.20411913,0.5302001 -0.1264954,0.1406845 -0.20411903,0.3263339 -0.20411913,0.52865 0,0.4351688 0.35802473,0.7947828 0.79322243,0.7947828 v 0.529684 c 0,0.435147 0.3575296,0.792717 0.7927057,0.792717 h 2.1171547 c 0.4351763,0 0.7937392,-0.35757 0.7937392,-0.792717 v -0.529684 c 0,-0.342253 -0.2218786,-0.6376598 -0.5281258,-0.7482741 V 8.7296991 h 0.1307396 c 0.5084731,0 0.9265457,-0.4165687 0.9265457,-0.9250082 0,-0.4523047 -0.3308046,-0.8326184 -0.7617003,-0.9110554 C 5.2412486,6.3945998 5.4841745,5.9157077 5.7230879,5.5097405 6.1155574,5.0138013 6.3499147,4.3870555 6.3499147,3.7051994 V 1.542024 C 6.65696,1.4318455 6.8790742,1.1355433 6.8790742,0.79271569 6.8790742,0.35756849 6.5215444,-8.1492724e-7 6.0863683,-8.1492724e-7 Z m 0,0.52916670492724 H 6.0863683 c 0.1511609,0 0.2635464,0.112399 0.2635464,0.2635498 0,0.1511509 -0.1123855,0.26613351 -0.2635464,0.26613351 H 0.79477367 c -0.15116077,0 -0.26561325,-0.11498261 -0.26561325,-0.26613351 0,-0.1511508 0.11445248,-0.2635498 0.26561325,-0.2635498 z M 14.552921,0.79271569 c -0.147136,-5.636e-4 -0.266462,0.119009 -0.265614,0.26613351 h -0.263546 c -1.418653,2e-7 -2.632861,1.0269288 -2.869036,2.4256919 -0.01245,0.073718 -0.02171,0.1472295 -0.02842,0.2206583 H 8.3110085 l 0.343644,-0.3436483 c 0.102616,-0.1031991 0.102616,-0.2699046 0,-0.3731038 C 8.6050835,2.9383212 8.5375678,2.910046 8.4670693,2.9098992 8.3965703,2.910046 8.3290555,2.9383212 8.2794866,2.9884473 L 7.4867809,3.7811639 c -0.1039794,0.1034415 -0.1039794,0.2717289 0,0.3751707 l 0.7927057,0.7927165 c 0.1034423,0.1039871 0.2717231,0.1039871 0.3751659,0 0.102616,-0.1031991 0.102616,-0.2699046 0,-0.3731037 L 8.3110085,4.2322991 h 2.8152945 c 0.101718,1.1149587 0.843857,2.1048369 1.942491,2.4866698 0.227247,0.078981 0.458455,0.1277321 0.689354,0.1488282 v 1.3332521 c 0,0.1511564 -0.112385,0.2651 -0.263546,0.2651 h -1.603499 c -0.01209,-0.080578 -0.03313,-0.1511562 -0.06873,-0.2191083 -0.06687,-0.1276371 -0.196796,-0.2020885 -0.264578,-0.2304767 -0.06778,-0.028389 -0.08882,-0.035511 -0.117306,-0.059428 -0.02847,-0.023918 -0.07313,-0.072673 -0.130221,-0.2072224 -0.05708,-0.1345507 -0.0615,-0.2016522 -0.05891,-0.2387452 0.0026,-0.037094 0.01156,-0.056591 0.03824,-0.1250569 0.02669,-0.068465 0.06392,-0.21462 0.0186,-0.3513998 C 11.262878,6.8979344 11.17538,6.7925641 11.036901,6.6564402 10.898424,6.5203166 10.788943,6.4337952 10.6514,6.3908234 c -0.137544,-0.042971 -0.282874,-0.00512 -0.350878,0.022738 -0.068,0.027854 -0.08439,0.037604 -0.121439,0.040824 -0.03704,0.00322 -0.104259,5.292e-4 -0.2397758,-0.05426 C 9.8037959,6.3453492 9.7518413,6.3005444 9.7274403,6.2724856 9.7030404,6.2444276 9.69704,6.2245307 9.6674963,6.1572471 9.6379529,6.0899644 9.5611404,5.9619912 9.432372,5.8973146 9.3036032,5.8326388 9.1656034,5.8181423 8.9714244,5.8198002 8.7772459,5.8214671 8.6396721,5.8366515 8.512027,5.9035159 8.3843814,5.970382 8.3094268,6.1029051 8.2810365,6.1706832 8.252647,6.238461 8.245527,6.2569337 8.2216095,6.2854047 8.1976912,6.3138757 8.1494666,6.3590626 8.0149064,6.4161462 7.8803467,6.4732295 7.8127433,6.4771284 7.7756479,6.4745405 7.7385515,6.4719476 7.7190634,6.4634994 7.6505926,6.4368167 7.5821222,6.4101285 7.4365034,6.3728987 7.2997144,6.4182139 7.1629248,6.4635285 7.0570642,6.5531135 6.9209313,6.6915824 6.7847987,6.8300508 6.6988094,6.9374872 6.6558347,7.0750214 c -0.042974,0.1375341 -0.00512,0.2828832 0.022738,0.350883 0.027856,0.068 0.037086,0.086465 0.040307,0.1235067 0.00322,0.037042 5.292e-4,0.1042733 -0.054259,0.2397786 -0.05478,0.1355059 -0.099061,0.1854087 -0.1271223,0.2098064 -0.02806,0.0244 -0.047948,0.030397 -0.1152366,0.059945 -0.067289,0.029539 -0.1957649,0.1079181 -0.2604457,0.2366781 -0.064681,0.12876 -0.078655,0.2647204 -0.076997,0.4588867 0.00167,0.1941658 0.021728,0.3303315 0.085782,0.4594037 0.072374,0.1458341 0.1967974,0.2041557 0.2645799,0.2325436 0.067783,0.02839 0.086764,0.033443 0.1152366,0.057361 0.028474,0.023921 0.075203,0.074745 0.1322899,0.2092896 0.057086,0.1345507 0.058915,0.2016522 0.056327,0.2387449 -0.00259,0.037099 -0.011033,0.054519 -0.037723,0.1229903 -0.02669,0.06847 -0.067715,0.207202 -0.018603,0.350883 0.046602,0.136347 0.1348873,0.245249 0.2733649,0.381372 0.1384773,0.136124 0.2457288,0.22265 0.3834336,0.2651 0.1578086,0.04865 0.2828737,0.003 0.3508783,-0.0248 0.068005,-0.02785 0.086459,-0.03709 0.1235051,-0.04031 0.037046,-0.0032 0.1042606,-0.001 0.2397752,0.05374 0.1355146,0.05478 0.1854025,0.09958 0.2098037,0.12764 0.024403,0.02806 0.030402,0.04795 0.059944,0.115239 0.029544,0.06729 0.091657,0.191657 0.2366749,0.262516 0.054155,0.02646 0.1098446,0.04481 0.17053,0.05633 v 1.075904 c -1.1e-6,0.435145 0.3580461,0.795299 0.7932216,0.795299 h 1.7047822 c -0.07848,0.249936 -0.120921,0.515276 -0.120921,0.790649 0,0.09035 0.0051,0.179633 0.01395,0.267684 H 6.30444 C 6.1947683,14.245062 5.9000601,14.022917 5.5551421,14.022918 c -0.7706215,0.0094 -0.9985891,0.0021 -1.5864451,0 V 13.31185 c 1.3e-6,-0.186369 -0.037081,-0.391575 -0.163812,-0.569991 -0.1267304,-0.178417 -0.3597873,-0.306958 -0.6288937,-0.306958 -0.2367132,0 -0.4209347,0.138539 -0.5508633,0.287321 -0.2038668,0.227682 -0.3714266,0.608673 -0.5374276,0.935344 -0.031093,0.05644 -0.059883,0.101753 -0.075963,0.121439 L 1.5699096,13.926281 C 1.5303242,13.824154 1.4319185,13.756967 1.3223829,13.757299 H 0.26974825 c -0.14693884,-5.82e-4 -0.26618727,0.118688 -0.26561325,0.265617 5.7004e-4,0.146122 0.11948244,0.264122 0.26561325,0.26355 H 1.0588367 v 2.117183 H 0.26974825 C 0.12361744,16.403067 0.00470503,16.521078 0.004135,16.667199 0.00327198,16.81433 0.12260641,16.93391 0.26974825,16.933332 H 1.3223829 c 0.097124,2.64e-4 0.1865769,-0.0527 0.2330575,-0.137975 0.1687351,0.06713 0.3543948,0.137459 0.5617152,0.137459 h 1.5879952 c 0.7281955,0 1.3223822,-0.593686 1.322382,-1.321883 H 5.557209 c 0.3421044,0 0.6364785,-0.222662 0.7467145,-0.529167 h 4.9267645 c 0.339395,1.071555 1.343453,1.851566 2.525393,1.851566 1.459619,-2e-6 2.648898,-1.189411 2.648898,-2.648933 0,-0.515433 -0.14851,-0.996574 -0.404621,-1.404049 l 0.295068,-0.229961 0.162262,0.208257 c 0.08965,0.116707 0.25729,0.137834 0.373099,0.04703 0.116051,-0.09028 0.136241,-0.257851 0.04496,-0.373104 -0.216961,-0.278248 -0.433127,-0.555877 -0.650081,-0.834058 -0.112374,-0.133349 -0.272507,-0.119817 -0.371548,-0.04651 -0.11522,0.08967 -0.136032,0.255712 -0.04651,0.371036 l 0.163296,0.209807 -0.294552,0.229444 c -0.305343,-0.321422 -0.690968,-0.56645 -1.12343,-0.703317 v -0.645956 h 0.263546 c 0.147343,8.74e-4 0.266996,-0.118798 0.26613,-0.266133 -5.82e-4,-0.146325 -0.119798,-0.264407 -0.26613,-0.263549 H 12.70138 c -0.14613,-5.56e-4 -0.265044,0.117428 -0.265613,0.263549 -8.74e-4,0.147131 0.118471,0.266711 0.265613,0.266133 h 0.264063 v 0.643889 c -0.639122,0.200533 -1.174812,0.637486 -1.504281,1.207679 H 9.5238381 c -0.1511612,0 -0.2635461,-0.114985 -0.2635461,-0.266134 v -1.072287 c 0.081207,-0.01205 0.1527961,-0.03291 0.2211721,-0.06873 0.1276456,-0.06687 0.1960065,-0.180766 0.2299568,-0.264584 0.027588,-0.06811 0.03396,-0.08883 0.057877,-0.117306 0.023921,-0.02847 0.074211,-0.07314 0.2087703,-0.130225 0.1345578,-0.05708 0.2021628,-0.0615 0.2392588,-0.05891 0.0371,0.0026 0.05451,0.01104 0.122987,0.03772 0.06847,0.02669 0.21409,0.06392 0.350879,0.0186 0.136789,-0.04532 0.244718,-0.132316 0.38085,-0.270785 0.136134,-0.138468 0.222639,-0.247971 0.265614,-0.385506 0.04297,-0.137534 0.0025,-0.283401 -0.02532,-0.3514 -0.02785,-0.067998 -0.03709,-0.084399 -0.04031,-0.1214394 -0.0032,-0.037048 -5.29e-4,-0.1063398 0.05426,-0.2418456 0.05478,-0.1355061 0.09905,-0.1854073 0.127122,-0.2098064 0.02806,-0.0244 0.04794,-0.030407 0.115237,-0.059945 0.06729,-0.029539 0.197832,-0.105851 0.262513,-0.2346108 0.02729,-0.054337 0.04534,-0.1102561 0.05684,-0.1715653 h 1.606602 c 0.435176,0 0.792705,-0.3596349 0.792705,-0.7947835 V 6.8677973 c 0.939052,-0.086472 1.809937,-0.6278316 2.287685,-1.4986164 0.672628,-1.2259942 0.375404,-2.759586 -0.699172,-3.6457727 v -0.664559 c 8.48e-4,-0.14712451 -0.118993,-0.26669571 -0.26613,-0.26613351 z m 0.263546,0.52968341 h 0.529676 V 4.4979159 H 14.816467 Z M 1.0588367,1.588016 h 4.7619185 v 2.1171834 c 0,1.3237474 -1.0573838,2.3807333 -2.3812178,2.3807333 -1.3238351,0 -2.3807007,-1.0569856 -2.3807007,-2.3807333 z m 12.9649243,0 h 0.263546 V 2.3807324 H 13.494602 C 13.347669,2.3801715 13.228427,2.4994262 13.228989,2.6463493 V 3.4395826 H 12.435766 C 12.288833,3.4390269 12.169592,3.5582765 12.170153,3.7051994 V 4.4979159 H 11.701971 C 11.634531,4.2014466 11.622811,3.8882265 11.676131,3.572391 11.86991,2.4247173 12.859765,1.5880161 14.023759,1.588016 Z M 3.4395374,2.1171826 C 3.3366031,2.1169361 3.2428779,2.1764045 3.1992455,2.2696281 L 2.8494007,3.0194531 2.077882,3.1326246 C 1.8626986,3.1628377 1.7736429,3.4251763 1.9259554,3.5801425 l 0.566366,0.5839436 -0.1390077,0.8185547 c -0.037306,0.2195015 0.1966365,0.384139 0.3906685,0.2749187 L 3.4395374,4.8710197 4.1211406,5.251875 C 4.3144701,5.3603856 4.5475214,5.1973015 4.511809,4.9785067 L 4.3728012,4.1485834 4.9489856,3.5744582 C 5.1034991,3.4214404 5.0177172,3.1577092 4.8027435,3.1248731 L 4.0214065,3.0075677 3.6798296,2.2696281 C 3.6361976,2.1764044 3.542472,2.1169361 3.4395374,2.1171826 Z M 15.875819,2.4711662 c 0.461406,0.5685487 0.632741,1.3177627 0.470249,2.0267497 h -0.470249 z m -2.117671,0.438733 h 0.529159 V 4.4979159 H 13.758148 V 3.7051994 Z M 3.4395374,3.0096341 3.6012825,3.3594837 C 3.6388335,3.4403647 3.714588,3.4968977 3.802818,3.509862 L 4.2048551,3.570324 3.9041024,3.8690138 c -0.060385,0.060396 -0.087902,0.1462299 -0.073896,0.2304769 L 3.9004853,4.5232373 3.5682101,4.3377189 c -0.080143,-0.044714 -0.1777193,-0.044714 -0.2578618,0 L 2.9667048,4.5294386 3.0349165,4.1211947 C 3.0491617,4.0382153 3.0230711,3.9534026 2.9646376,3.892785 L 2.6638847,3.5822094 3.0685059,3.5232983 C 3.1565428,3.5101723 3.2320721,3.4536613 3.2695244,3.37292 Z m 9.2597746,0.9591151 h 0.529677 v 0.5291667 h -0.529677 z m -0.808726,1.0588501 h 4.266349 C 15.530441,6.2564463 14.201334,6.5594757 13.242424,6.2187411 12.633643,6.0071577 12.159774,5.5701367 11.890586,5.0275993 Z M 4.7143777,6.3215772 C 4.6370522,6.5022519 4.5657594,6.6888837 4.5019906,6.8786492 H 4.3650499 c -0.508473,0 -0.9255125,0.4176019 -0.9255125,0.9260417 0,0.4640117 0.3475377,0.8514223 0.7947729,0.9157062 V 9.7885492 H 2.9098614 c 0,-0.2024507 -0.076957,-0.3884494 -0.2036024,-0.529167 C 2.8327238,9.1182516 2.9098614,8.9319749 2.9098614,8.7296991 2.9098614,8.5274582 2.8326844,8.3427523 2.706259,8.2020826 2.8326875,8.0614108 2.9098614,7.87618 2.9098614,7.6739491 2.9098614,7.3365435 2.6947015,7.0445059 2.395171,6.9303255 2.3272349,6.7226112 2.2491772,6.519186 2.1646973,6.3220939 c 0.3849556,0.1877732 0.8175256,0.2930054 1.2748401,0.2930054 0.4573969,0 0.8898327,-0.1056854 1.2748403,-0.2935221 z m 4.4678839,0.047026 c 0.01869,0.042867 0.055931,0.1495208 0.1452086,0.2521812 0.089278,0.1026605 0.222772,0.1931107 0.4123725,0.2697509 0.1896005,0.076641 0.3486573,0.1042837 0.4842023,0.092501 0.135545,-0.011785 0.236261,-0.063208 0.279565,-0.081132 0.02336,0.011856 0.07792,0.048333 0.161229,0.1302245 0.08369,0.082274 0.121464,0.1375757 0.13384,0.1612305 -0.01722,0.043584 -0.06546,0.1443691 -0.07493,0.2800863 -0.0095,0.135717 0.01883,0.2944066 0.0987,0.4826577 0.07987,0.1882508 0.173838,0.319704 0.278016,0.4072104 0.104176,0.087508 0.258895,0.144694 0.258895,0.144694 0,0 0.01659,0.0868 0.01757,0.2015382 9.79e-4,0.1147683 -0.0097,0.1800553 -0.01809,0.2072224 -0.04363,0.018971 -0.148995,0.056453 -0.251661,0.1457275 -0.102668,0.089268 -0.195169,0.2227898 -0.271814,0.412378 -0.07664,0.1895872 -0.102225,0.3486724 -0.09043,0.4842082 0.01178,0.135536 0.06166,0.235751 0.07855,0.276986 -0.0022,0.0039 -0.02562,0.05743 -0.129706,0.163296 -0.104073,0.105858 -0.157369,0.130996 -0.161228,0.133326 -0.04152,-0.01619 -0.142288,-0.06443 -0.278016,-0.0739 -0.135725,-0.0095 -0.2959378,0.01831 -0.4842017,0.09819 -0.1882635,0.07987 -0.3176251,0.174367 -0.4051377,0.278537 -0.087513,0.104169 -0.1233429,0.210564 -0.1415915,0.254247 -0.026608,0.0086 -0.091981,0.02072 -0.2077363,0.0217 -0.1141939,9.8e-4 -0.1778418,-0.0092 -0.2046349,-0.01757 -0.018949,-0.04364 -0.059031,-0.149003 -0.1483103,-0.251664 -0.089278,-0.102661 -0.2201881,-0.195177 -0.4097888,-0.271817 -0.1896001,-0.07664 -0.3491735,-0.102217 -0.4847182,-0.09043 -0.1355448,0.01178 -0.2378107,0.06114 -0.2790489,0.07803 -0.00389,-0.0022 -0.057422,-0.02512 -0.1632953,-0.12919 -0.080545,-0.07918 -0.1180947,-0.133097 -0.1317731,-0.158646 0.017219,-0.04384 0.065463,-0.146953 0.07493,-0.2826707 C 7.2786977,9.8517846 7.2483341,9.6930968 7.1684604,9.5048441 7.0885875,9.3165928 6.9941053,9.1877243 6.8899282,9.1002176 6.7857515,9.0127104 6.6798877,8.9742897 6.6387841,8.9570743 c -0.00122,-0.0045 -0.02354,-0.057955 -0.024805,-0.206189 -0.00101,-0.1173535 0.011385,-0.1822902 0.019121,-0.2072224 0.042612,-0.01869 0.150027,-0.055935 0.2526943,-0.145211 C 6.9884622,8.3091849 7.0788974,8.1756611 7.1555427,7.9860741 7.2321874,7.7964869 7.2593088,7.6394686 7.2475253,7.5039329 7.2357434,7.3683969 7.1866452,7.2658571 7.1684615,7.2217797 7.1814366,7.1953637 7.2183767,7.1411743 7.2971339,7.0610659 7.376841,6.9799912 7.4307477,6.942236 7.4568121,6.929291 7.5014331,6.947026 7.6027184,6.992689 7.7384449,7.002155 7.8741711,7.011625 8.0323155,6.983319 8.2205792,6.903453 8.4088432,6.8235868 8.5402718,6.7296036 8.6277841,6.6254337 8.7152961,6.5212635 8.7516432,6.4153871 8.7698923,6.3717022 c 0.026725,-0.00881 0.091021,-0.022738 0.2051516,-0.022736 0.1154255,-9.79e-4 0.1807157,0.011427 0.2072188,0.019637 z M 1.8375899,7.4083326 c 0.09189,-4.5e-5 0.1866514,0 0.2795653,0 0.1511395,0 0.2635462,0.1144873 0.2635462,0.2656165 0,0.15113 -0.112406,0.2635502 -0.2635462,0.2635502 H 1.8515424 c -0.1511403,0 -0.2635463,-0.1124202 -0.2635463,-0.2635502 0,-0.1464064 0.1055848,-0.2587582 0.2495938,-0.2656165 z m 2.52746,0 h 0.5291596 c 0.2244577,0 0.3973862,0.1719151 0.3973862,0.3963583 0,0.2244421 -0.1729285,0.3963583 -0.3973862,0.3963583 H 4.3650499 c -0.2244579,0 -0.3963529,-0.1719162 -0.3963529,-0.3963583 0,-0.2244432 0.171895,-0.3963583 0.3963529,-0.3963583 z m 4.6306622,0.2656165 c -0.5895081,0 -1.059869,0.4834793 -1.059869,1.05575 -3e-7,0.5813549 0.4774039,1.0588501 1.0588355,1.0588501 0.5814314,0 1.0583194,-0.4679247 1.0583194,-1.0588501 0,-0.5813544 -0.4621594,-1.0557494 -1.0572859,-1.05575 z m -0.00103,0.529167 c 0.2955102,0 0.5291595,0.2312749 0.5291595,0.526583 0,0.2953086 -0.2336493,0.5296831 -0.5291595,0.5296831 -0.2955107,0 -0.5296763,-0.2343745 -0.5296763,-0.5296831 0,-0.2862183 0.2341656,-0.526583 0.5296763,-0.526583 z m -7.406686,0.2630331 h 0.5291595 c 0.1511606,0 0.2635462,0.1123982 0.2635462,0.2635499 0,0.1511501 -0.1123863,0.2661335 -0.2635462,0.2661335 H 1.5879961 c -0.1511601,0 -0.2656132,-0.1149834 -0.2656132,-0.2661335 0,-0.1511517 0.1144526,-0.2635499 0.2656132,-0.2635499 z M 2.1171534,9.524999 c 0.1511824,0 0.2635462,0.1123778 0.2635462,0.2635502 0,0.151172 -0.1123638,0.2656148 -0.2635462,0.2656168 H 1.5879961 c -0.1511824,0 -0.2656132,-0.1212737 -0.2656132,-0.2656168 0,-0.146448 0.1154635,-0.2571531 0.2588943,-0.2635502 z m 0.5891056,0.792716 h 1.7915975 c 0.1511609,0 0.2656134,0.114468 0.2656134,0.265617 v 0.529684 c 0,0.151152 -0.1144517,0.263549 -0.2656134,0.263549 H 2.3807018 c -0.1511617,0 -0.2635462,-0.112397 -0.2635462,-0.263549 v -0.529684 c 0.2329013,0 0.4435125,-0.103138 0.5891034,-0.265617 z m 10.788343,0.795301 h 0.529159 v 0.536917 c -0.08805,-0.0089 -0.177329,-0.01395 -0.26768,-0.01395 -0.08823,0 -0.175424,0.0044 -0.261479,0.01292 z m 0.261479,1.052649 c 1.173625,0 2.119738,0.945187 2.119738,2.118734 0,1.173547 -0.946113,2.119249 -2.119738,2.11925 -1.173624,0 -2.119223,-0.945702 -2.119223,-2.11925 0,-1.173547 0.945599,-2.118734 2.119223,-2.118734 z m 0,0.529167 c -0.642486,-2e-6 -1.222755,0.386761 -1.468624,0.980302 -0.245869,0.593541 -0.110663,1.279985 0.343643,1.73426 0.454307,0.454278 1.140658,0.590019 1.734238,0.344166 0.59358,-0.245854 0.980805,-0.826716 0.980805,-1.469161 5.55e-4,-0.146115 -0.11742,-0.265033 -0.263546,-0.265617 h -1.060903 v -1.060401 c -5.83e-4,-0.146115 -0.119488,-0.264106 -0.265613,-0.263549 z M 3.1759913,12.964066 c 0.1272831,0 0.1583782,0.03002 0.1968846,0.08423 0.038506,0.05421 0.066662,0.156768 0.066662,0.26355 v 0.974618 c -5.557e-4,0.146923 0.1186807,0.266177 0.2656131,0.265617 0.880093,0 0.9563192,0.01086 1.8520582,0 0.1511609,0 0.2635461,0.112399 0.2635461,0.263549 0,0.151153 -0.1123852,0.265617 -0.2635461,0.265617 H 4.7634699 c -0.1463263,-5.56e-4 -0.2653136,0.117749 -0.2656134,0.264067 v 0.265617 c 0,0.444388 -0.3486261,0.792716 -0.7927057,0.792716 H 2.1171556 C 1.9090482,16.375006 1.7596617,16.305217 1.5879961,16.235184 v -1.756999 l 0.598405,-0.200504 c 0.1208064,-0.03412 0.1852147,-0.103121 0.2356413,-0.164848 0.050905,-0.06231 0.089612,-0.128576 0.1286726,-0.199471 0.1399627,-0.257194 0.3015982,-0.642069 0.4728329,-0.843359 0.077043,-0.08823 0.1240472,-0.105937 0.1524434,-0.105937 z m 10.3165437,0.291455 v 1.028878 c 2.91e-4,0.145511 0.118026,0.264066 0.263546,0.264066 h 1.025763 c -0.08439,0.340139 -0.329145,0.596453 -0.619592,0.716752 -0.397241,0.164533 -0.85195,0.07354 -1.155986,-0.230476 -0.304035,-0.304015 -0.395015,-0.759303 -0.230474,-1.156519 0.120308,-0.290427 0.363403,-0.520326 0.716743,-0.622701 z"
       id="rect906"
       inkscape:connector-curvature="0"
       sodipodi:nodetypes="ccccccccccccccccccccccccccccccccccccccccccccccccccccccccccccccccccccccccccccccccccccccccccccccccccccccccccccccccccccccccccccccccccccccccccccccccccccccccccccccccccccccccccccccccccccccccccccccccccccccccccccccccccccccccccccccccccccccccccccccccccccccccccccccccccccccccccccccccccccccccccccccccccccccccccccccccccccccccccccccccccccccccccccccccccccccccccccccccccccccccccccccccccccccccccccccccccccccccccccccccccccccccccccccccccccccc" />
  </g>
</svg>
